<svg width="44" height="47" viewBox="0 0 44 47" fill="none" xmlns="http://www.w3.org/2000/svg">
<path d="M17.2568 33.8182H27.2703L36.7568 41.5V33.8182C38.3378 34.2121 41.5 34.0545 41.5 30.2727C41.5 26.4909 41.5 15.303 41.5 10.1818C41.3243 9.19697 40.4459 7.22727 38.3378 7.22727M6.71622 29.6818V36.7727L16.7297 29.0909H31.4865C32.5405 29.0909 34.6486 28.3818 34.6486 25.5455C34.6486 22.7091 34.6486 10.5758 34.6486 4.86364C34.473 4.07576 33.5946 2.5 31.4865 2.5C29.3784 2.5 12.6892 2.5 4.60811 2.5C3.90541 2.69697 2.5 3.44545 2.5 4.86364C2.5 6.28182 2.5 19.2424 2.5 25.5455C2.67568 26.9242 3.76486 29.6818 6.71622 29.6818Z" stroke="#26766C" stroke-width="5"/>
</svg>
