<svg width="45" height="45" viewBox="0 0 45 45" fill="none" xmlns="http://www.w3.org/2000/svg">
<path fill-rule="evenodd" clip-rule="evenodd" d="M22.5 0C10.0736 0 0 10.0736 0 22.5C0 27.9023 1.90392 32.8599 5.07738 36.7384C5.09796 36.7645 5.11912 36.7902 5.14085 36.8156C9.26771 41.8141 15.5118 45 22.5 45C29.4851 45 35.7268 41.8169 39.8537 36.8221C39.8793 36.7925 39.9041 36.7623 39.9281 36.7316C43.0983 32.8541 45 27.8991 45 22.5C45 10.0736 34.9263 0 22.5 0ZM37.5433 31.4466C39.1037 28.8286 40 25.769 40 22.5C40 12.835 32.1649 5 22.5 5C12.835 5 5 12.835 5 22.5C5 25.769 5.89635 28.8287 7.45668 31.4466C8.00501 31.0387 8.65287 30.6053 9.40548 30.1752C12.256 28.546 16.5459 27 22.5 27C28.4541 27 32.7441 28.546 35.5946 30.1752C36.3472 30.6053 36.995 31.0386 37.5433 31.4466ZM12.3395 36.7499C15.204 38.7961 18.7114 40 22.5 40C26.2958 40 29.8094 38.7915 32.6769 36.7382L12.3395 36.7499Z" fill="#26766C"/>
</svg>
