<svg width="10" height="18" viewBox="0 0 10 18" fill="none" xmlns="http://www.w3.org/2000/svg">
<path fill-rule="evenodd" clip-rule="evenodd" d="M5.51491 9.90212C3.7052 11.3499 1.48932 13.5542 7.22679e-07 16.533L2.31054 17.6882C3.57669 15.1558 5.49401 13.227 7.12863 11.9193C7.94137 11.2691 8.67162 10.7826 9.19445 10.4608C9.4555 10.3002 9.66376 10.1813 9.80342 10.1043C9.87322 10.0658 9.92577 10.0378 9.9591 10.0203L9.99439 10.002L9.99927 9.99946L9.99989 9.99916C9.99986 9.99917 9.99983 9.99918 9.99927 9.99814L9.9993 7.69024C9.99986 7.6892 9.99989 7.68921 9.99992 7.68923L9.9993 7.68892L9.99442 7.68642L9.95913 7.6681C9.9258 7.65061 9.87324 7.62261 9.80345 7.5841C9.66379 7.50705 9.45552 7.38816 9.19447 7.22751C8.67164 6.90577 7.94139 6.41918 7.12865 5.76898C5.49401 4.46125 3.57669 2.53238 2.31054 -1.00997e-07L1.17389e-07 1.15524C1.48932 4.13396 3.70519 6.33837 5.51489 7.78615C6.02742 8.19618 6.51146 8.54878 6.94311 8.84416C6.51146 9.13953 6.02743 9.49211 5.51491 9.90212Z" fill="black"/>
</svg>
