<svg width="10" height="18" viewBox="0 0 10 18" fill="none" xmlns="http://www.w3.org/2000/svg">
<path fill-rule="evenodd" clip-rule="evenodd" d="M4.48509 9.90212C6.2948 11.3499 8.51068 13.5542 10 16.533L7.68946 17.6882C6.42331 15.1558 4.50599 13.227 2.87137 11.9193C2.05863 11.2691 1.32838 10.7826 0.80555 10.4608C0.544504 10.3002 0.336236 10.1813 0.19658 10.1043C0.126784 10.0658 0.0742272 10.0378 0.0408969 10.0203L0.00560864 10.002L0.000727797 9.99946L0.000112888 9.99916C0.000141465 9.99917 0.000171028 9.99918 0.000727797 9.99814L0.00069932 7.69024C0.000142551 7.6892 0.000112989 7.68921 8.4411e-05 7.68923L0.00069932 7.68892L0.00558115 7.68642L0.0408704 7.6681C0.0742007 7.65061 0.126758 7.62261 0.196555 7.5841C0.336211 7.50705 0.54448 7.38816 0.805528 7.22751C1.32836 6.90577 2.05861 6.41918 2.87135 5.76898C4.50599 4.46125 6.42331 2.53238 7.68946 -1.00997e-07L10 1.15524C8.51068 4.13396 6.29481 6.33837 4.48511 7.78615C3.97258 8.19618 3.48854 8.54878 3.05689 8.84416C3.48854 9.13953 3.97257 9.49211 4.48509 9.90212Z" fill="black"/>
</svg>
