<svg width="41" height="40" viewBox="0 0 41 40" fill="none" xmlns="http://www.w3.org/2000/svg">
<path d="M14.5 37.1454H10.5C6.08172 37.1454 2.5 33.5636 2.5 29.1454V16.5606C2.5 13.7632 3.96122 11.1689 6.35358 9.71902L16.3536 3.65842C18.9022 2.11386 22.0978 2.11386 24.6464 3.65842L34.6464 9.71902C37.0388 11.1689 38.5 13.7632 38.5 16.5606V29.1454C38.5 33.5636 34.9182 37.1454 30.5 37.1454H26.5M14.5 37.1454V29.1454C14.5 25.8316 17.1862 23.1454 20.5 23.1454C23.8138 23.1454 26.5 25.8316 26.5 29.1454V37.1454M14.5 37.1454H26.5" stroke="#26766C" stroke-width="5" stroke-linecap="round" stroke-linejoin="round"/>
</svg>
